<?xml version="1.0" encoding="UTF-8"?>
<svg id="Layer_2" data-name="Layer 2" xmlns="http://www.w3.org/2000/svg" xmlns:xlink="http://www.w3.org/1999/xlink" viewBox="0 0 376.2 351.03">
  <defs>
    <style>
      .cls-1 {
        fill: url(#linear-gradient);
      }

      .cls-1, .cls-2, .cls-3, .cls-4, .cls-5, .cls-6, .cls-7, .cls-8, .cls-9, .cls-10, .cls-11, .cls-12, .cls-13, .cls-14, .cls-15, .cls-16, .cls-17, .cls-18, .cls-19, .cls-20, .cls-21, .cls-22, .cls-23, .cls-24, .cls-25, .cls-26, .cls-27, .cls-28, .cls-29, .cls-30, .cls-31, .cls-32, .cls-33, .cls-34, .cls-35, .cls-36, .cls-37, .cls-38, .cls-39, .cls-40 {
        stroke-width: 0px;
      }

      .cls-2 {
        fill: #f47721;
      }

      .cls-3 {
        fill: #faad5e;
      }

      .cls-4 {
        fill: #f9fae6;
      }

      .cls-5 {
        fill: #733080;
      }

      .cls-6 {
        fill: #518ac1;
      }

      .cls-7 {
        fill: #79246c;
      }

      .cls-8 {
        fill: #25b1d4;
      }

      .cls-9 {
        fill: #964680;
      }

      .cls-10 {
        fill: #a5286a;
      }

      .cls-11 {
        fill: #36c2db;
      }

      .cls-12 {
        fill: #258bc4;
      }

      .cls-13 {
        fill: #3c3162;
      }

      .cls-14 {
        fill: #3b6d7e;
      }

      .cls-15 {
        fill: #1a1c25;
      }

      .cls-16 {
        fill: #0c1d2a;
      }

      .cls-17 {
        fill: #43225d;
      }

      .cls-18 {
        fill: #0b3147;
      }

      .cls-19 {
        fill: #1f192c;
      }

      .cls-20 {
        fill: #cb3644;
      }

      .cls-21 {
        fill: #de447e;
      }

      .cls-22 {
        fill: #d83e3b;
      }

      .cls-23 {
        fill: #d82559;
      }

      .cls-24 {
        fill: #dbc525;
      }

      .cls-25 {
        fill: #dd608f;
      }

      .cls-26 {
        fill: #dadb37;
      }

      .cls-27 {
        fill: #d65a34;
      }

      .cls-28 {
        fill: #b087a6;
      }

      .cls-29 {
        fill: #d12270;
      }

      .cls-30 {
        fill: #ba4283;
      }

      .cls-31 {
        fill: #69cad6;
      }

      .cls-32 {
        fill: #e48e25;
      }

      .cls-33 {
        fill: #f0552f;
      }

      .cls-34 {
        fill: #efdc28;
      }

      .cls-35 {
        fill: #f1c518;
      }

      .cls-36 {
        fill: #f0f8f8;
      }

      .cls-37 {
        fill: #e9624c;
      }

      .cls-38 {
        fill: #eb6623;
      }

      .cls-39 {
        fill: #f68822;
      }

      .cls-40 {
        fill: #03303e;
      }
    </style>
    <linearGradient id="linear-gradient" x1="92.85" y1="141.4" x2="186.41" y2="185.66" gradientUnits="userSpaceOnUse">
      <stop offset="0" stop-color="#ea5355"/>
      <stop offset="1" stop-color="#e04882"/>
    </linearGradient>
  </defs>
  <g id="Layer_1-2" data-name="Layer 1">
    <g>
      <path class="cls-24" d="M1.64,183.53c2.51-.87,23.44,5.59,23.25,7.75-.24,2.75-8.69.53,4,7-15.69,9.51-34.6-12.19-27.25-14.75Z"/>
      <path class="cls-11" d="M274.64,24.03c1.53-.16,2.01,1.22,2.25,2.25,2.62,11.39-20.57,20.16-16,9.5.56-1.31,12.85-11.65,13.75-11.75Z"/>
      <path class="cls-8" d="M140.64,12.53c7.44-1.24,6.57,11.6-1,8-3.72-1.77-2.09-7.49,1-8Z"/>
      <path class="cls-29" d="M294.64,316.03c5.48-1.32,6.01,6,3,7-5.01,1.66-7.21-5.99-3-7Z"/>
      <path class="cls-5" d="M312.64,23.03c6.77-1.33,1.46,9.02-3,7-2.41-1.09.61-6.53,3-7Z"/>
      <path class="cls-29" d="M344.64,317.03c4.65-1.26,5.39,5.22,2.5,6-4.23,1.15-5.79-5.11-2.5-6Z"/>
      <path class="cls-25" d="M328.14,279.03c3.07-.98,4.44,4.32,1.5,5-3.34.77-3.54-4.34-1.5-5Z"/>
      <g>
        <path class="cls-2" d="M163.64,332.03c7.94-1.91,5.05,11.99-1.5,8.5-3.17-1.69-1.5-7.78,1.5-8.5Z"/>
        <path class="cls-22" d="M67.64,12.53c1.93-.51,3.71,3.05,2,4-2.51,1.39-4.56-3.32-2-4Z"/>
        <path class="cls-23" d="M271.14,292.03c3.02-.87,4.12,2.82,2,3.5-3.2,1.02-3.75-3-2-3.5Z"/>
      </g>
      <g>
        <path class="cls-11" d="M269.89,3.53c.03.16-.02.34,0,.5-12.6,14.4-8.5-3.35-1.75-4,3.77-.36,1.61,2.7,1.75,3.5Z"/>
        <path class="cls-2" d="M62.89,143.03l2.5,2.5c-.06.04.03.13-1,1-.07-.78-1.86-.9-2-1-3.49-2.49-20.57-17.35-22.25-18-1.7-.66-18.65-.19-23.75-12.75-5.87-14.45,20.39-7.7,25,11,5.34,3.75,17.4,15.12,21.5,17.25Z"/>
        <path class="cls-11" d="M162.14,2.03c9.63,9.32,12.61,8.27,7.75,18.25-8.51,17.49-21.72,1.86-7.75-18.25Z"/>
        <path class="cls-29" d="M349.64,230.03c11.58-2.25,19.56,12.57,6.5,13.5-12.74.91-14.92-11.86-6.5-13.5Z"/>
        <path class="cls-11" d="M352.14,138.53c1.82-.14-1.97,2.32-3,3-2.29,1.52-32.91,20.5-33.75,18.75,2.64-4.22,11.14-8.21,13.75-10.75,4.67-4.55-2.13-5.49,12-5l11-6Z"/>
        <path class="cls-11" d="M320.14,107.03c9.85-1.94,8.57,9.94,1.5,11-8.4,1.26-7.87-9.75-1.5-11Z"/>
        <path class="cls-29" d="M321.64,315.03c7.08-.8,7.43,8.99,2,11-9.1,3.37-9.44-10.16-2-11Z"/>
        <path class="cls-23" d="M332.14,266.03c10.08-1.94,6.77,11.38-1.5,10.5-6.24-.67-3.62-9.52,1.5-10.5Z"/>
        <path class="cls-2" d="M52.14,95.53c4.15-1.78,12.17,12.53,8.5,14-5.91,2.36-12.45-12.3-8.5-14Z"/>
        <path class="cls-2" d="M117.64,319.53c8.19-2.19,8.47,9.88,2.5,11-8.02,1.51-7.34-9.71-2.5-11Z"/>
        <path class="cls-11" d="M112.64,99.53c10.1-2.31,7.57,14.48-1,9.5-4.34-2.52-2.75-8.64,1-9.5Z"/>
        <path class="cls-5" d="M339.64,215.03c6.92-.8,8.24,9.49,2.5,10.5-7.1,1.24-9.04-9.74-2.5-10.5Z"/>
        <path class="cls-33" d="M128.89,54.03c-.53,3.23-2.73,2.12-4.5-.5-1.67-2.46-7.54-13.61-.25-11.5,1.83.53,4.98,10.61,4.75,12Z"/>
        <path class="cls-31" d="M244.14,46.03c6.32-.9,6.96,8.26,1.5,9-6.92.94-7.12-8.2-1.5-9Z"/>
        <path class="cls-33" d="M102.14,12.03c3.59-1.11,10.38,9.41,6.5,11-4.13,1.69-10.69-9.7-6.5-11Z"/>
        <path class="cls-11" d="M299.14,79.53c8.67-2.2,5.49,11.39-1.5,7.5-3.15-1.75-.97-6.87,1.5-7.5Z"/>
        <path class="cls-22" d="M121.89,99.03c-.27-.38-4.56-.06-4-7.5,4.7-5.1,11.24,6.35,4,7.5Z"/>
        <path class="cls-11" d="M362.64,191.03c8.57-.78-4.98,12.99-6.75,7.25-.82-2.66,5.4-7.13,6.75-7.25Z"/>
        <path class="cls-7" d="M265.64,310.53c6.09-.64,5.48,9.85-1,8-3.24-.92-3.01-7.58,1-8Z"/>
        <path class="cls-32" d="M47.39,177.53c-.01.06-1.22-.32-1,.75.3,1.45,9.92,3.84,13.5,6.75-.08,0,.26.74-1.5.5h-1c-2.89-2.67-9.87-3.08-12-6.25-.15-.22-1.61-4.54-1.5-5,.28-1.14,4.93-4.66,3.5,3.25Z"/>
        <path class="cls-23" d="M53.64,32.03c1.51-.31,7.95,6.07,5,8.5-2.78,2.29-9.43-7.6-5-8.5Z"/>
        <path class="cls-29" d="M289.14,307.53c4.97-1.36,5.9,6.05,2.5,7-4.04,1.13-6.62-5.88-2.5-7Z"/>
        <path class="cls-26" d="M72.14,122.53l16.25,14.25c-.93,1.66-18.91-12.81-16.25-14.25Z"/>
        <path class="cls-22" d="M248.14,339.03c5.74-1.22,5.47,8.48-.5,6.5-2.53-.84-2.29-5.91.5-6.5Z"/>
        <path class="cls-22" d="M325.64,305.03c5.21-1.66,6.43,5.78,2,6.5-4.54.73-4.79-5.61-2-6.5Z"/>
        <path class="cls-24" d="M328.14,58.53c6.94-.8-3.95,11.64-5.25,6.75-.63-2.39,4.79-6.7,5.25-6.75Z"/>
        <path class="cls-35" d="M94.39,81.03c-.25-.31-4.16-.56-4.5-6,.06-.01.37-.97.75-1,4.83-.44,7,3.45,3.75,7Z"/>
        <path class="cls-23" d="M304.64,297.03c4.36-1.19,5.6,5.33,2,6-4.12.77-4.84-5.22-2-6Z"/>
        <path class="cls-24" d="M343.14,68.03c3.06,1.16-3.32,7.9-5.5,7.5-3.89-.71,3.96-8.08,5.5-7.5Z"/>
        <path class="cls-11" d="M291.14,56.53c3.24-.75,3.1,5.36.5,7-4.81,3.03-2.55-6.52-.5-7Z"/>
        <path class="cls-27" d="M348.14,171.03c5.32-1.73,5.41,7.19,0,5.5-2.45-.77-1.86-4.89,0-5.5Z"/>
        <path class="cls-11" d="M354.64,92.53c5.02-.63,2.12,6.22-1,6-3.73-.26-1.85-5.64,1-6Z"/>
        <path class="cls-29" d="M292.89,213.03c.17-.37,2.37-1.02,2.5-1,.05,0-.17.93.25,1,3.98.65,15.11,1.69,17.5,2.5,11.98,4.06-19.04-2.47-20.25-2.5Z"/>
        <path class="cls-3" d="M121.14,286.03c4.13-1.07,4.79,4.86,2,5.5-3.1.71-5.13-4.69-2-5.5Z"/>
        <path class="cls-37" d="M177.14,13.53c3.94-.94,4.77,6.77,0,5.5-2.29-.61-2.18-4.98,0-5.5Z"/>
        <g>
          <path class="cls-24" d="M100.89,118.53c-.85.31-2.21,1.02-3,1.5-5.8-12.73-16.93-21.69-25-32.75-.87-1.19-5.63-7.69-4.75-8.25,12.06,12.18,22.96,25.44,32.75,39.5Z"/>
          <g>
            <path class="cls-34" d="M89.89,75.03c.34,5.44,4.25,5.69,4.5,6,.35.43,5.77,8.75,6,9.25,6.79,14.79-5.93-3.45-8.25-3.75-2.27-.29-10.11,9.01-22.25-13-1.43-2.6-2.76-1.77-3-7.5,4.06-5.25,11.33-1.08,15.25,2,4.61,3.63,5.18,7.47,7.75,7Z"/>
            <path class="cls-2" d="M69.89,73.53c-4.75,1.74-5.45-4.33-3-7.5.24,5.73,1.57,4.9,3,7.5Z"/>
          </g>
        </g>
        <g>
          <path class="cls-17" d="M318.64,176.03c10.3-1.11,21.79,4.85,29.25,11.75-36.43,18.1-53.2-9.18-29.25-11.75Z"/>
          <path class="cls-31" d="M311.14,167.03c1.38.71,6.5,5.82,6.75,6.25,3.85,6.54-7.57-4.82-7.5-5.5.01-.14.52-.45.75-.75Z"/>
        </g>
        <path class="cls-11" d="M373.64,172.53c2.45-.69,3.53,3.3,1.5,4-2.71.93-3.76-3.37-1.5-4Z"/>
        <path class="cls-11" d="M279.64,30.03c1.84-.17,2.33,3.05.5,3.5-2.78.69-2.28-3.33-.5-3.5Z"/>
        <path class="cls-22" d="M227.39,349.03c-.52.49-1.35,1.17-2,1.5-11.35.97.17-14.24,2-1.5Z"/>
        <g>
          <path class="cls-1" d="M116.39,117.53c17.53,2.53,19.13,18.02,29.5,33.75,6.68,10.13,16.15,18.75,16.5,20,.54,1.89-2.49,3.72,1.5,4.75-.92,2.41,2.97,1.37,3.25,1.5,3.79,1.7,15.83,12.85,11.25,10.5-.22-.79-13.07-12.44-12-8.25.23.9,10.65,7.97,12,9.25,1.05.99,2.22,2,3,3.25l-.25,21.25c-6.25-3.6-13.89-4.2-21-4-5.15-7.02-11.91-12.64-17.75-19-5.3-6.48-9.91-13.39-15-20-.02-.03-.15-.06-.5-.5-.88-3.15-4.16-6.04-4.5-6.5-3.55-4.75-6.35-10.14-10-14.75-6-7.57-13.35-13.92-19-21.75.41-1.2.37-2.93,1.5-4.5.41-.44,2.5-2.2,3-2.5.79-.48,2.15-1.19,3-1.5,5.15-1.91,10.11-1.78,15.5-1Z"/>
          <path class="cls-21" d="M193.39,174.03c.59,13.59,12.29,6.42,13.25,6.5,1.32.11,18.58,13.46,22.75,13.5-.05.15.05.35,0,.5-1.18,3.84-2.84,7.62-4,11.5-.05.15.05.35,0,.5-9.39-2.49-1.46-13.95-6-10.25-.74.6-2.95,5.61-4.25,6.75-23.27-16.73,2.82,6.21,2.75,7.75-9.21,9.67-15.06-2.75-22.75-5.75-3.58-1.4-3.07.41-3.25.5-1.34.63-1.07-2.29-2,4-.54-11.99-1.01-23.99-1-36,1.5.68,2.98.35,4.5.5Z"/>
          <g>
            <path class="cls-29" d="M272.89,220.03c-.28.58-.42,1.12-1,1.5-5.67-1.59-3.91,5.89,9.25,4,.77-2.97-1.27-3.4.25-6,10.22,1.85,27.01,3.59,35.25,10,13.37,10.4,9.14,37.23-6.5,34-2.24-.46-7.34-6.33-11-6-11.89,1.07,5.74,20.46,23,28.5,2.83,1.32,11.89,2.63,9,5-14.35-.81-29.71-12.2-31.5-12.5-12.45-2.11.05,12.52-12,16-14.01,4.05-38.36-28.79-47.5-32.5-5.01-2.04-12.06-.14-10.75,4.75.5,1.86,25.14,17.19,29,25,6.99,14.14-2.98,29.22-18.5,30-.76,4.94,2.63,18.06,2,20.5-.76,2.93-3.77,2.63-4,2.75-4.96-2.91.84-16.52-2.25-24l-7.25-.25c-1.44,3.55,2.86,20.72-.75,21.75-6.87,1.96-1.82-16.68-3.25-22.75-.14-.6-5.53-3.72-.5-11-.12-1.06-6.47-5.74-7.5-6.75-14.39-14.07-30.23-26.56-46-39,8.02-4.42,15.61-11.34,19.75-19.5,15.74,16.19,15.11,13.07.25-1.75,1.49-8.46-.07-22.55-.5-32.25.93-6.29.66-3.37,2-4,5.37,1.35,12.22,8.35,16.25,11,3.21,2.11,9.4,4.35,12.75,7-.87,3.97-5.13,16.48.25,18,5.02,1.41,10.56-4.87,2.25-7-1.39-2.89.93-6.01,1.5-8.5,3.56,1.99,19.16,14.64,21.75,14,1.55-.38,2.25-3.93,1.75-5.25-.48-1.29-19.53-12.04-22-16.25.5-1.67.87-2.85,1.5-4.5,2.31-2.48,16.79,4.68,17.25,5.5,1.56,2.82-3.6,5.25-1.5,6,10.5-.47,17.75,2.52,10.75-7.25-3.57-4.97-17.23-13.84-23-17.75.54-1.7,1.83-3.51,2-4,4.03,2.49,26.91,16.87,29.75,15.5l3-5-2.75,7.25c.11.75,8.2,4.97,9.5,5.75Z"/>
            <path class="cls-8" d="M224.89,226.03c.57-2.53.71-4.88,1.5-7.5,2.47,4.21,21.52,14.96,22,16.25.5,1.32-.2,4.87-1.75,5.25-2.59.64-18.19-12.01-21.75-14Z"/>
            <path class="cls-13" d="M252.14,240.53c1.56-.45,11.52,1.24,11.75,2.75.03.23-1.76,3.69-2.75,3.75-.6.03-9.48-4.92-10.25-5.75.4-.06,1.03-.69,1.25-.75Z"/>
            <path class="cls-14" d="M257.89,230.53v1c-3.13-2.08-1.99-5.22,1.5-5.75-2.33,3.66-1.33,3.23-1.5,4.75Z"/>
            <path class="cls-28" d="M257.89,231.53v-1s1.19,2.05,0,1Z"/>
          </g>
        </g>
        <path class="cls-30" d="M181.39,169.53c-.77-1.66-2.16-1.26-3-3-1.32-2.73.76-4.52,3-7,.07,3.33-.07,6.67,0,10Z"/>
        <g>
          <path class="cls-16" d="M241.89,123.53c.38.92.67,2.04,1,3,1.4,4.13,2.63,9.17,3,13.5.11,1.31-.03,2.68,0,4,.5,19.17-6.36,34.83-12.5,52.5-.17.49-1.46,2.3-2,4-.6,1.89-1.13,4.04-1.5,6-.01.08-.56-.39-.5,1.5h-.5c.36-7.55,6.22-13.1.5-13.5.05-.15-.05-.35,0-.5,4.98-16.1,16.91-38.55,9-55.5-9.25-19.8-40.69-15-52.25-32,.22,9.34.92,18.67,1.25,28,.45,13,.4,26.02,1.5,39-.01,12.01.46,24.01,1,36,.43,9.7,1.99,23.79.5,32.25,14.86,14.82,15.49,17.94-.25,1.75-4.14,8.16-11.73,15.08-19.75,19.5-37.46,20.65-74.01-3.72-50.5-32.5,3.87-4.74,11.99-10.79,17.5-13.5,6.9-3.4,14.31-5.43,22-6,7.58-.56,15.64-.47,22.25,4l.75-.75c.41-14.93-.68-29.84-1-44.75-.07-3.33.07-6.67,0-10-.49-22.23-1.71-44.53-2-66.75-.56-43.68.55-28.6,18.5-10,15.91,16.49,36.25,21.93,44,40.75Z"/>
          <path class="cls-18" d="M228.89,208.03h.5c.06,1.85,1.03,2.3,3,2.5,1.69,3.19,3.8,3.72-3.25-.5-1,.34-.92,3.13-1.25,4-.63,1.65-1,2.83-1.5,4.5-.79,2.62-.93,4.97-1.5,7.5-.57,2.49-2.89,5.61-1.5,8.5-.07-.02,0,1.07-1.5.25-.14-3.07.86-6.13,2-9-3.47-.81-1.99-1.45-3-2.25,1.03-4.7,3.1-12.28,4.5-17,.05-.15-.05-.35,0-.5,1.52,1.49,2.44,3.96,3.5,2Z"/>
          <path class="cls-19" d="M223.39,234.53c8.31,2.13,2.77,8.41-2.25,7-5.38-1.52-1.12-14.03-.25-18,1.01.8-.47,1.44,3,2.25-1.14,2.87-2.14,5.93-2,9,1.5.82,1.43-.27,1.5-.25Z"/>
          <path class="cls-16" d="M228.89,208.03c-1.06,1.96-1.98-.51-3.5-2,1.16-3.88,2.82-7.66,4-11.5,5.72.4-.14,5.95-.5,13.5Z"/>
        </g>
        <g>
          <path class="cls-8" d="M227.89,214.03c.33-.87.25-3.66,1.25-4,7.05,4.22,4.94,3.69,3.25.5-.74-1.4-.72-3.25-2.5-4,.37-1.96.9-4.11,1.5-6,5.77,3.91,19.43,12.78,23,17.75,7,9.77-.25,6.78-10.75,7.25-2.1-.75,3.06-3.18,1.5-6-.46-.82-14.94-7.98-17.25-5.5Z"/>
          <path class="cls-8" d="M225.39,206.53c-1.4,4.72-3.47,12.3-4.5,17-3.35-2.65-9.54-4.89-12.75-7-4.03-2.65-10.88-9.65-16.25-11,.18-.09-.33-1.9,3.25-.5,7.69,3,13.54,15.42,22.75,5.75.07-1.54-26.02-24.48-2.75-7.75,1.3-1.14,3.51-6.15,4.25-6.75,4.54-3.7-3.39,7.76,6,10.25Z"/>
          <path class="cls-9" d="M232.39,210.53c-1.97-.2-2.94-.65-3-2.5-.06-1.89.49-1.42.5-1.5,1.78.75,1.76,2.6,2.5,4Z"/>
        </g>
        <g>
          <path class="cls-39" d="M141.89,190.53c.08.08.42-.08.5,0,5.63,6.89,12.33,13.1,17,20.5-7.69.57-15.1,2.6-22,6-8.35-14.3-19.42-19.3-22-22.25-1.72-1.97-15.05-24.46-22.5-31.5,26.57-4.6,40.67,30.23,45.75,30.75.71.07,3.34-2.41,3.25-3.5Z"/>
          <g>
            <path class="cls-24" d="M122.39,163.53c1.93,5.54,4.25,6.18,4.5,6.5.35.44.48.47.5.5,2.03,6.72,9.5,14.54,14.5,20,.09,1.09-2.54,3.57-3.25,3.5-5.08-.52-19.18-35.35-45.75-30.75,7.45,7.04,20.78,29.53,22.5,31.5,2.58,2.95,13.65,7.95,22,22.25-5.51,2.71-13.63,8.76-17.5,13.5h-.5c-12.8-4.63-17.6-3.5-3.5,4-2.21,1.46-11.17.8-17.25,3.5l11.75,6.25c-19.45,8.43-28.93,2.64-2,9.5-6.81,8.06-6.91,1.22-12,16.5l9.5-2c-1.78,4.17-11.76,24.28-11,27,2.27,8.16,11.25-18.75,13.25-19.25.75-.19,7.21,4.32,7.25,4.75l-4.5,5.75c-3.29,2.29-9.75,9.15-13.5,12.25.66,16.17-19.39,28.05-30,13-12.91-18.33,16.08-29.06-8-39,5.58-17.08-12.03-10.18-20.5-10.75-7.87-1.65-15.21-8.16-11.5-16.75,5.26-12.18,48.65-9.08,51-18,2.37-9.03-16.85-6.97-24.5-18-6.08-8.76-3.55-17.42,4.5-23.75,1.76.24,1.42-.5,1.5-.5,6.54.04,10.74-.93,17.25,1.5,3.2,1.2,25.99,17.95,12,4-9.87-9.84-31.18-17.84-29.75-34.25.22-2.58,3-8.05,5-9.75,1.03-.87.94-.96,1-1,11.27-7.09,24.33,6.43,25,5.25.32-2.63-22.86-21.22-17.25-20.75,1,.08,12.53,12.45,14.25,14.25,7.02,7.37,16.52,22.42,15.5,11-.35-3.89-9.86-17.19-10.5-19.5-1.84-6.65.85-8.31,1-8.75,5.65,7.83,13,14.18,19,21.75,3.65,4.61,6.45,10,10,14.75Z"/>
            <g>
              <path class="cls-4" d="M58.39,185.53c-8.05,6.33-10.58,14.99-4.5,23.75,7.65,11.03,26.87,8.97,24.5,18-2.35,8.92-45.74,5.82-51,18-3.71,8.59,3.63,15.1,11.5,16.75-11.02-.74-17.93-11.19-10.5-19.75,5.25-6.05,15.04-4.89,15-7-4.05-2.73.8-8.66,4-5.25-5.17-2.11-6.02,4.59-2.75,5.5,2.01.56,2.74-.96,3.25-1,8.78-.75,2.14-.27,5.5-3.5-.85,5.91,3.31,2.09,4,2,4.76-.6,22.08-.91,20-8.75-.86-3.25-13.96-6.4-17.25-8.25-12.13-6.83-14.74-22.39-2.75-30.5h1Z"/>
              <path class="cls-4" d="M93.39,127.03c-.15.44-2.84,2.1-1,8.75.64,2.31,10.15,15.61,10.5,19.5,1.02,11.42-8.48-3.63-15.5-11-1.72-1.8-13.25-14.17-14.25-14.25-5.61-.47,17.57,18.12,17.25,20.75-.67,1.18-13.73-12.34-25-5.25l-2.5-2.5c1.04.54,2.05,1.37,3.25,1.5,6.98-4.37,12.56-1.16,19.25,1.75-.91-1.79-21.93-19.66-11.75-17.25,1.96.47,24.09,26.02,27.5,29.5,2.07-12.9-18.73-22.5-6.25-36-1.13,1.57-1.09,3.3-1.5,4.5Z"/>
              <g>
                <path class="cls-4" d="M64.39,146.53c-2,1.7-4.78,7.17-5,9.75-1.43,16.41,19.88,24.41,29.75,34.25,13.99,13.95-8.8-2.8-12-4-6.51-2.43-10.71-1.46-17.25-1.5-3.58-2.91-13.2-5.3-13.5-6.75-.22-1.07.99-.69,1-.75,1.25,2.53,8.89,3.39,12.75,7,11.69-3.89,20.76,3.33,30.25,8.75-11.25-13.03-40.67-22.22-29.5-44,.61-1.2,3.07-1.67,1.5-3.75.14.1,1.93.22,2,1Z"/>
                <g>
                  <path class="cls-32" d="M99.14,209.03c3.53-.72,2.67,8.87.25,12.25-6.63,9.26-4.65-11.35-.25-12.25Z"/>
                  <path class="cls-32" d="M119.39,230.53c-1.7.19-2.56,3.38-3.5,4-14.1-7.5-9.3-8.63,3.5-4Z"/>
                  <path class="cls-40" d="M83.64,253.53c4.06-1.47,4.78,4.28,2,5-3.83.99-4.41-4.13-2-5Z"/>
                </g>
              </g>
              <g>
                <path class="cls-21" d="M142.39,190.53c-.08-.08-.42.08-.5,0-5-5.46-12.47-13.28-14.5-20,5.09,6.61,9.7,13.52,15,20Z"/>
                <path class="cls-21" d="M126.89,170.03c-.25-.32-2.57-.96-4.5-6.5.34.46,3.62,3.35,4.5,6.5Z"/>
              </g>
            </g>
          </g>
          <g>
            <path class="cls-2" d="M176.39,341.03c-.5-3.65,2.15-13.82,2.5-18.5,1.42.64,10.01,31.37-2.5,18.5Z"/>
            <g>
              <path class="cls-2" d="M119.39,230.53h.5c-23.51,28.78,13.04,53.15,50.5,32.5,15.77,12.44,31.61,24.93,46,39-12.11,7.59,5.48,14.23-11.5,31.75-.69,5.42,2.29,10.5,0,15.75-.65.38-.47.48-.5.5-2.52,1.49-3.24.72-5,1-.84-1.25-1.75-2.45-2-4,4.39,6.89,13.01-.7,0-2.5-.03-6.47,4.77-16.19-2.75-23-1.29-1.17-5.91-3.39-7.5-3.5-13.71-.97-.83,15.96-2.75,23.75-.94,3.81-7.2,5.1-8-.75,12.51,12.87,3.92-17.86,2.5-18.5-2.49-1.12-3.65,1.26-6,.25,1.96-7.38-1.22-19.09-9.75-20.25-15.99-2.18-11.15,17.85-14.75,30.25-3.79,13.06-16.84,7.95-20-2.5-3.74-12.36,5.26-12.34-4-22.5-.48-4.83,4.12-8.64,4.5-13.5.72-9.31-5.61-16.39-18-7.75l4.5-5.75c-.04-.43-6.5-4.94-7.25-4.75-2,.5-10.98,27.41-13.25,19.25-.76-2.72,9.22-22.83,11-27l-9.5,2c5.09-15.28,5.19-8.44,12-16.5-26.93-6.86-17.45-1.07,2-9.5l-11.75-6.25c6.08-2.7,15.04-2.04,17.25-3.5.94-.62,1.8-3.81,3.5-4Z"/>
              <path class="cls-38" d="M197.39,347.03c-.11-.72,0-1.71,0-2.5,13.01,1.8,4.39,9.39,0,2.5Z"/>
              <path class="cls-15" d="M171.14,287.53c6.88-.8,7.57,9.33,2,10.5-8.8,1.85-8.21-9.78-2-10.5Z"/>
            </g>
          </g>
        </g>
        <g>
          <path class="cls-21" d="M178.39,166.53c.84,1.74,2.23,1.34,3,3,.32,14.91,1.41,29.82,1,44.75l-.75.75c-6.61-4.47-14.67-4.56-22.25-4-4.67-7.4-11.37-13.61-17-20.5,5.84,6.36,12.6,11.98,17.75,19,7.11-.2,14.75.4,21,4l.25-21.25c-.78-1.25-1.95-2.26-3-3.25-.04-.32.07-.74,0-1,4.58,2.35-7.46-8.8-11.25-10.5-.28-.13-4.17.91-3.25-1.5,3.26.85-1.81-7.15-3-12.25-8.85-10.54-13.97-23.55-20.5-35.5-4.07-7.46-11.77-17.9-12-19-.85-3.99,2.88-8.12,8-2.5,2.29,2.52,24.13,39.04,38,56.5.82,1.03,3.61,4.75,4,3.25Z"/>
          <path class="cls-6" d="M178.39,188.03c.07.26-.04.68,0,1-1.35-1.28-11.77-8.35-12-9.25-1.07-4.19,11.78,7.46,12,8.25Z"/>
        </g>
        <g>
          <path class="cls-11" d="M297.14,36.53c2.97.33-6.76,16.39-8.25,20.25-1.18,3.05-.79,6.45-2,9.5l-13.25,8.75c-.33-16.62,13.36-27.2,23.5-38.5Z"/>
          <path class="cls-11" d="M254.39,108.03l-1-.25c4.94-5,9.45-10.61,14.75-15.25,5.16-4.51,11.98-7.11,10.25-9.5,7.14-4.53,13.95-12.24,20.75-17.5.96.74-.57,7.15-1.25,8.25-2.09,3.4-20.29,8.54-43.5,34.25Z"/>
          <g>
            <path class="cls-31" d="M278.39,83.03c1.73,2.39-5.09,4.99-10.25,9.5-5.3,4.64-9.81,10.25-14.75,15.25l1,.25c-4.1,4.54-9.41,10.36-12.5,15.5-7.75-18.82-28.09-24.26-44-40.75-17.95-18.6-19.06-33.68-18.5,10,.29,22.22,1.51,44.52,2,66.75-2.24,2.48-4.32,4.27-3,7-.39,1.5-3.18-2.22-4-3.25-13.87-17.46-35.71-53.98-38-56.5-5.12-5.62-8.85-1.49-8,2.5.23,1.1,7.93,11.54,12,19,6.53,11.95,11.65,24.96,20.5,35.5,1.19,5.1,6.26,13.1,3,12.25-3.99-1.03-.96-2.86-1.5-4.75-.35-1.25-9.82-9.87-16.5-20-10.37-15.73-11.97-31.22-29.5-33.75-.44-1.49,4.25-1.03,6.5-4.75,2.63-4.35,1.84-9.71-1-13.75,7.24-1.15.7-12.6-4-7.5-3.78-4.67-6.19-10.29-9.5-15.25-7.57-11.34-27.63-29.41-16.25-32.25,15.47-3.87,14.5,27.4,32.25,9.5,1.77,2.62,3.97,3.73,4.5.5,15.06-5.41,26.01,3.85,30.5,17.75,4.77,14.77-1.55,20.39,4.25,19.25,8.6-1.7,4.03-34.85,4.75-41.25,3.12-27.92,43.74-35.89,56.5-7,5.73,12.96,2.18,27.33,7.5,19,1.43-2.24,1-8.6,4-8-.8,12.99-14.68,28.05-7.75,29.25,4.08.71,5.96-8.9,9.25-14.25,12.22-19.85,39.63-23.96,23.5-9,5.97,9.43,1.07,10.51.5,14-1.5,9.19,6.32,4.65-8.25,18.75-2.06,1.99-12.53,7.61-6,11,7.46,3.88,15.5-13.15,20-17.5,5.1,2.23,6.82-.51,10.75-3Z"/>
            <path class="cls-20" d="M140.14,69.53c7.79-2.58,14.45,24.24,3.5,16.5-3.33-2.36-8.38-14.89-3.5-16.5Z"/>
            <path class="cls-20" d="M153.64,96.03c5.33-1.44,5.95,6.55,2,7.5-4.67,1.12-5.64-6.51-2-7.5Z"/>
          </g>
          <g>
            <path class="cls-8" d="M295.39,212.03c-.13-.02-2.33.63-2.5,1-.44-.01-.56-.99-3.25.5-1.97,1.87-6.97,3.82-8.25,6-1.52,2.6.52,3.03-.25,6-13.16,1.89-14.92-5.59-9.25-4-1.16.75-1.76.37-2,.75-1.47,2.28,8.37,2.9,10,2-2.23-1.58-4.66-2.85-7-4.25-1.3-.78-9.39-5-9.5-5.75l2.75-7.25-3,5c-2.84,1.37-25.72-13.01-29.75-15.5,6.14-17.67,13-33.33,12.5-52.5,4.67-2.69,12.23-8.41,14-13.25l-14,9.25c-.37-4.33-1.6-9.37-3-13.5,3.93-2.83,14.52-11.68,17-14.75,3.73-4.61,5.13-12.08,10.25-15.25,10.19-6.3,9.21,3.79,18,2.5,4.66-.69,8.87-9.54,14.5-10.5,9.07-1.55,16.13,6.2,10.75,16.75-4.52,8.86-48.69,41.31-52,46.5-1.24,1.94-1.18,4.8.25,5.25,1.4.44,21.07-13.42,25-15.5,9.58-5.06,20.75-7.88,30-13.5,6.47-3.93,14.76-13.43,17.5-14.5,7.53-2.95,19.27,1.86,14.25,11.25-2.03,3.8-28.2,19.31-32.75,20.25-8.51,1.77,9.9-10.91,7.5-15-33.48,16.8-17.68,21.88-16.25,25.25,4.16,9.81-20.49,16.75-14,41-4.77.59-7.93,5.65-5.5,10,2.5,4.47,12.73,3.78,8,5.75Z"/>
            <path class="cls-12" d="M271.89,221.53c.58-.38.72-.92,1-1.5,2.34,1.4,4.77,2.67,7,4.25-1.63.9-11.47.28-10-2,.24-.38.84,0,2-.75Z"/>
            <path class="cls-10" d="M262.14,161.03c7.39-.63,1.34,7.25-5.5,7.5-6.4.23,2.12-7.21,5.5-7.5Z"/>
            <path class="cls-29" d="M256.14,175.53c5.38-.02,6.01,8.69-1,7.5-5.03-.85-3.5-7.48,1-7.5Z"/>
            <path class="cls-36" d="M245.89,144.03c-.03-1.32.11-2.69,0-4l14-9.25c-1.77,4.84-9.33,10.56-14,13.25Z"/>
          </g>
          <path class="cls-11" d="M238.39,138.53c7.91,16.95-4.02,39.4-9,55.5-4.17-.04-21.43-13.39-22.75-13.5-.96-.08-12.66,7.09-13.25-6.5.73,5.34,4.59,8.43,10,6.25-3.48-2.64-6.09-5.86-10-6.25-1.52-.15-3,.18-4.5-.5-1.1-12.98-1.05-26-1.5-39,24.69,29.66,21.96-22.2,51,4Z"/>
          <path class="cls-31" d="M238.39,138.53c-29.04-26.2-26.31,25.66-51-4-.33-9.33-1.03-18.66-1.25-28,11.56,17,43,12.2,52.25,32Z"/>
          <path class="cls-8" d="M193.39,174.03c3.91.39,6.52,3.61,10,6.25-5.41,2.18-9.27-.91-10-6.25Z"/>
        </g>
      </g>
    </g>
  </g>
</svg>